<svg width="286" height="48" viewBox="0 0 286 48" fill="none" xmlns="http://www.w3.org/2000/svg">
<g clip-path="url(#clip0_23_5)">
<path d="M69.3095 36.396C66.5015 36.396 64.0895 35.856 62.0735 34.776C60.0575 33.696 58.5095 32.172 57.4295 30.204C56.3735 28.236 55.8455 25.932 55.8455 23.292C55.8455 21.324 56.1455 19.536 56.7455 17.928C57.3695 16.32 58.2575 14.94 59.4095 13.788C60.5855 12.636 62.0015 11.76 63.6575 11.16C65.3375 10.536 67.2215 10.224 69.3095 10.224C70.4135 10.224 71.5535 10.356 72.7295 10.62C73.9295 10.86 74.9855 11.232 75.8975 11.736C76.5695 12.096 77.0375 12.552 77.3015 13.104C77.5655 13.656 77.6495 14.22 77.5535 14.796C77.4815 15.372 77.2775 15.888 76.9415 16.344C76.6055 16.8 76.1735 17.112 75.6455 17.28C75.1175 17.424 74.5415 17.34 73.9175 17.028C73.1975 16.692 72.4775 16.44 71.7575 16.272C71.0615 16.08 70.3295 15.984 69.5615 15.984C68.0735 15.984 66.8255 16.272 65.8175 16.848C64.8335 17.4 64.0895 18.216 63.5855 19.296C63.0815 20.376 62.8295 21.708 62.8295 23.292C62.8295 24.876 63.0815 26.22 63.5855 27.324C64.0895 28.404 64.8335 29.232 65.8175 29.808C66.8255 30.36 68.0735 30.636 69.5615 30.636C70.1855 30.636 70.8575 30.564 71.5775 30.42C72.2975 30.252 73.0055 30 73.7015 29.664C74.4215 29.352 75.0575 29.268 75.6095 29.412C76.1855 29.556 76.6415 29.844 76.9775 30.276C77.3375 30.708 77.5655 31.212 77.6615 31.788C77.7575 32.34 77.6735 32.892 77.4095 33.444C77.1695 33.996 76.7375 34.44 76.1135 34.776C75.2735 35.28 74.2295 35.676 72.9815 35.964C71.7575 36.252 70.5335 36.396 69.3095 36.396ZM84.1226 36.324C83.0666 36.324 82.2506 36.048 81.6746 35.496C81.1226 34.944 80.8466 34.14 80.8466 33.084V21.168C80.8466 20.136 81.1106 19.344 81.6386 18.792C82.1906 18.24 82.9706 17.964 83.9786 17.964C84.9866 17.964 85.7546 18.24 86.2826 18.792C86.8106 19.344 87.0746 20.136 87.0746 21.168V22.644H86.7146C86.9546 21.204 87.5666 20.064 88.5506 19.224C89.5586 18.384 90.8066 17.94 92.2946 17.892C92.9906 17.868 93.5066 18.048 93.8426 18.432C94.2026 18.792 94.3946 19.476 94.4186 20.484C94.4186 21.348 94.2386 22.032 93.8786 22.536C93.5186 23.04 92.8346 23.34 91.8266 23.436L90.9986 23.508C89.7266 23.628 88.8026 23.988 88.2266 24.588C87.6506 25.164 87.3626 26.028 87.3626 27.18V33.084C87.3626 34.14 87.0866 34.944 86.5346 35.496C85.9826 36.048 85.1786 36.324 84.1226 36.324ZM102.694 42.804C101.95 42.804 101.35 42.612 100.894 42.228C100.438 41.844 100.15 41.34 100.03 40.716C99.9338 40.092 100.042 39.432 100.354 38.736L102.766 33.516V36.108L96.6098 22.032C96.2978 21.312 96.1898 20.64 96.2858 20.016C96.4058 19.392 96.7298 18.9 97.2578 18.54C97.7858 18.156 98.5058 17.964 99.4178 17.964C100.186 17.964 100.798 18.144 101.254 18.504C101.734 18.84 102.166 19.512 102.55 20.52L106.15 29.88H104.926L108.742 20.484C109.126 19.5 109.558 18.84 110.038 18.504C110.542 18.144 111.214 17.964 112.054 17.964C112.774 17.964 113.35 18.156 113.782 18.54C114.214 18.9 114.478 19.392 114.574 20.016C114.67 20.64 114.562 21.312 114.25 22.032L106.078 40.392C105.646 41.352 105.166 41.988 104.638 42.3C104.134 42.636 103.486 42.804 102.694 42.804ZM120.19 42.804C119.182 42.804 118.402 42.528 117.85 41.976C117.298 41.424 117.022 40.62 117.022 39.564V21.168C117.022 20.136 117.286 19.344 117.814 18.792C118.366 18.24 119.146 17.964 120.154 17.964C121.186 17.964 121.966 18.24 122.494 18.792C123.046 19.344 123.322 20.136 123.322 21.168V23.256L122.926 21.492C123.262 20.412 123.958 19.548 125.014 18.9C126.094 18.228 127.318 17.892 128.686 17.892C130.222 17.892 131.566 18.264 132.718 19.008C133.894 19.752 134.806 20.808 135.454 22.176C136.102 23.544 136.426 25.2 136.426 27.144C136.426 29.04 136.102 30.684 135.454 32.076C134.806 33.468 133.894 34.536 132.718 35.28C131.566 36.024 130.222 36.396 128.686 36.396C127.366 36.396 126.178 36.084 125.122 35.46C124.066 34.836 123.358 34.02 122.998 33.012H123.43V39.564C123.43 40.62 123.142 41.424 122.566 41.976C122.014 42.528 121.222 42.804 120.19 42.804ZM126.67 31.68C127.318 31.68 127.882 31.524 128.362 31.212C128.866 30.876 129.262 30.384 129.55 29.736C129.838 29.064 129.982 28.2 129.982 27.144C129.982 25.536 129.67 24.384 129.046 23.688C128.422 22.968 127.63 22.608 126.67 22.608C126.022 22.608 125.446 22.764 124.942 23.076C124.438 23.388 124.042 23.88 123.754 24.552C123.466 25.2 123.322 26.064 123.322 27.144C123.322 28.728 123.634 29.88 124.258 30.6C124.882 31.32 125.686 31.68 126.67 31.68ZM148.459 36.396C146.659 36.396 145.171 36.12 143.995 35.568C142.843 35.016 141.979 34.188 141.403 33.084C140.827 31.956 140.539 30.552 140.539 28.872V23.004H139.315C138.547 23.004 137.947 22.8 137.515 22.392C137.107 21.984 136.903 21.396 136.903 20.628C136.903 19.86 137.107 19.284 137.515 18.9C137.947 18.492 138.547 18.288 139.315 18.288H140.539V16.056C140.539 15 140.815 14.196 141.367 13.644C141.919 13.092 142.711 12.816 143.743 12.816C144.775 12.816 145.567 13.092 146.119 13.644C146.671 14.196 146.947 15 146.947 16.056V18.288H149.899C150.691 18.288 151.291 18.492 151.699 18.9C152.131 19.284 152.347 19.86 152.347 20.628C152.347 21.396 152.131 21.984 151.699 22.392C151.291 22.8 150.691 23.004 149.899 23.004H146.947V28.656C146.947 29.544 147.151 30.204 147.559 30.636C147.991 31.044 148.663 31.248 149.575 31.248C149.911 31.248 150.235 31.212 150.547 31.14C150.859 31.068 151.147 31.032 151.411 31.032C151.795 31.008 152.107 31.128 152.347 31.392C152.587 31.632 152.707 32.196 152.707 33.084C152.707 33.804 152.599 34.416 152.383 34.92C152.167 35.4 151.783 35.748 151.231 35.964C150.895 36.084 150.439 36.18 149.863 36.252C149.287 36.348 148.819 36.396 148.459 36.396ZM163.287 36.396C161.319 36.396 159.603 36.024 158.139 35.28C156.675 34.536 155.535 33.468 154.719 32.076C153.903 30.684 153.495 29.04 153.495 27.144C153.495 25.704 153.723 24.42 154.179 23.292C154.635 22.14 155.295 21.168 156.159 20.376C157.023 19.56 158.055 18.948 159.255 18.54C160.455 18.108 161.799 17.892 163.287 17.892C165.255 17.892 166.971 18.264 168.435 19.008C169.899 19.752 171.027 20.82 171.819 22.212C172.635 23.58 173.043 25.224 173.043 27.144C173.043 28.56 172.815 29.844 172.359 30.996C171.903 32.148 171.243 33.132 170.379 33.948C169.539 34.74 168.507 35.352 167.283 35.784C166.083 36.192 164.751 36.396 163.287 36.396ZM163.287 31.68C163.935 31.68 164.511 31.524 165.015 31.212C165.519 30.876 165.903 30.384 166.167 29.736C166.455 29.064 166.599 28.2 166.599 27.144C166.599 25.536 166.287 24.384 165.663 23.688C165.039 22.968 164.247 22.608 163.287 22.608C162.639 22.608 162.063 22.764 161.559 23.076C161.055 23.388 160.659 23.88 160.371 24.552C160.083 25.2 159.939 26.064 159.939 27.144C159.939 28.728 160.251 29.88 160.875 30.6C161.499 31.32 162.303 31.68 163.287 31.68ZM189.227 36.396C186.419 36.396 184.007 35.856 181.991 34.776C179.975 33.696 178.427 32.172 177.347 30.204C176.291 28.236 175.763 25.932 175.763 23.292C175.763 21.324 176.063 19.536 176.663 17.928C177.287 16.32 178.175 14.94 179.327 13.788C180.503 12.636 181.919 11.76 183.575 11.16C185.255 10.536 187.139 10.224 189.227 10.224C190.331 10.224 191.471 10.356 192.647 10.62C193.847 10.86 194.903 11.232 195.815 11.736C196.487 12.096 196.955 12.552 197.219 13.104C197.483 13.656 197.567 14.22 197.471 14.796C197.399 15.372 197.195 15.888 196.859 16.344C196.523 16.8 196.091 17.112 195.563 17.28C195.035 17.424 194.459 17.34 193.835 17.028C193.115 16.692 192.395 16.44 191.675 16.272C190.979 16.08 190.247 15.984 189.479 15.984C187.991 15.984 186.743 16.272 185.735 16.848C184.751 17.4 184.007 18.216 183.503 19.296C182.999 20.376 182.747 21.708 182.747 23.292C182.747 24.876 182.999 26.22 183.503 27.324C184.007 28.404 184.751 29.232 185.735 29.808C186.743 30.36 187.991 30.636 189.479 30.636C190.103 30.636 190.775 30.564 191.495 30.42C192.215 30.252 192.923 30 193.619 29.664C194.339 29.352 194.975 29.268 195.527 29.412C196.103 29.556 196.559 29.844 196.895 30.276C197.255 30.708 197.483 31.212 197.579 31.788C197.675 32.34 197.591 32.892 197.327 33.444C197.087 33.996 196.655 34.44 196.031 34.776C195.191 35.28 194.147 35.676 192.899 35.964C191.675 36.252 190.451 36.396 189.227 36.396ZM203.933 36.324C202.925 36.324 202.145 36.048 201.593 35.496C201.041 34.944 200.765 34.14 200.765 33.084V13.536C200.765 12.48 201.041 11.676 201.593 11.124C202.145 10.572 202.925 10.296 203.933 10.296C204.965 10.296 205.757 10.572 206.309 11.124C206.885 11.676 207.173 12.48 207.173 13.536V21.384H206.597C207.173 20.256 207.989 19.392 209.045 18.792C210.125 18.192 211.349 17.892 212.717 17.892C214.133 17.892 215.297 18.168 216.209 18.72C217.121 19.248 217.805 20.088 218.261 21.24C218.717 22.368 218.945 23.796 218.945 25.524V33.084C218.945 34.14 218.669 34.944 218.117 35.496C217.565 36.048 216.773 36.324 215.741 36.324C214.709 36.324 213.917 36.048 213.365 35.496C212.813 34.944 212.537 34.14 212.537 33.084V25.776C212.537 24.696 212.345 23.928 211.961 23.472C211.601 23.016 211.061 22.788 210.341 22.788C209.381 22.788 208.613 23.1 208.037 23.724C207.461 24.324 207.173 25.14 207.173 26.172V33.084C207.173 35.244 206.093 36.324 203.933 36.324ZM225.765 36.324C224.757 36.324 223.977 36.024 223.425 35.424C222.873 34.824 222.597 33.96 222.597 32.832V21.456C222.597 20.328 222.873 19.464 223.425 18.864C223.977 18.264 224.757 17.964 225.765 17.964C226.797 17.964 227.589 18.264 228.141 18.864C228.717 19.464 229.005 20.328 229.005 21.456V32.832C229.005 33.96 228.729 34.824 228.177 35.424C227.625 36.024 226.821 36.324 225.765 36.324ZM225.765 15.408C224.637 15.408 223.761 15.144 223.137 14.616C222.537 14.088 222.237 13.32 222.237 12.312C222.237 11.328 222.537 10.572 223.137 10.044C223.761 9.516 224.637 9.252 225.765 9.252C226.941 9.252 227.829 9.516 228.429 10.044C229.029 10.572 229.329 11.328 229.329 12.312C229.329 13.32 229.029 14.088 228.429 14.616C227.829 15.144 226.941 15.408 225.765 15.408ZM235.962 36.324C234.954 36.324 234.174 36.048 233.622 35.496C233.07 34.944 232.794 34.14 232.794 33.084V21.168C232.794 20.136 233.058 19.344 233.586 18.792C234.138 18.24 234.918 17.964 235.926 17.964C236.934 17.964 237.702 18.24 238.23 18.792C238.758 19.344 239.022 20.136 239.022 21.168V23.148L238.626 21.384C239.13 20.328 239.874 19.488 240.858 18.864C241.866 18.216 243.054 17.892 244.422 17.892C245.718 17.892 246.822 18.204 247.734 18.828C248.67 19.452 249.342 20.4 249.75 21.672H249.246C249.798 20.496 250.626 19.572 251.73 18.9C252.834 18.228 254.058 17.892 255.402 17.892C256.794 17.892 257.934 18.168 258.822 18.72C259.71 19.248 260.37 20.088 260.802 21.24C261.258 22.368 261.486 23.796 261.486 25.524V33.084C261.486 34.14 261.198 34.944 260.622 35.496C260.07 36.048 259.278 36.324 258.246 36.324C257.238 36.324 256.458 36.048 255.906 35.496C255.354 34.944 255.078 34.14 255.078 33.084V25.704C255.078 24.672 254.922 23.928 254.61 23.472C254.298 23.016 253.782 22.788 253.062 22.788C252.174 22.788 251.49 23.1 251.01 23.724C250.554 24.348 250.326 25.236 250.326 26.388V33.084C250.326 34.14 250.05 34.944 249.498 35.496C248.946 36.048 248.154 36.324 247.122 36.324C246.09 36.324 245.298 36.048 244.746 35.496C244.194 34.944 243.918 34.14 243.918 33.084V25.704C243.918 24.672 243.762 23.928 243.45 23.472C243.138 23.016 242.622 22.788 241.902 22.788C241.038 22.788 240.366 23.1 239.886 23.724C239.43 24.348 239.202 25.236 239.202 26.388V33.084C239.202 35.244 238.122 36.324 235.962 36.324ZM268.374 42.804C267.366 42.804 266.586 42.528 266.034 41.976C265.482 41.424 265.206 40.62 265.206 39.564V21.168C265.206 20.136 265.47 19.344 265.998 18.792C266.55 18.24 267.33 17.964 268.338 17.964C269.37 17.964 270.15 18.24 270.678 18.792C271.23 19.344 271.506 20.136 271.506 21.168V23.256L271.11 21.492C271.446 20.412 272.142 19.548 273.198 18.9C274.278 18.228 275.502 17.892 276.87 17.892C278.406 17.892 279.75 18.264 280.902 19.008C282.078 19.752 282.99 20.808 283.638 22.176C284.286 23.544 284.61 25.2 284.61 27.144C284.61 29.04 284.286 30.684 283.638 32.076C282.99 33.468 282.078 34.536 280.902 35.28C279.75 36.024 278.406 36.396 276.87 36.396C275.55 36.396 274.362 36.084 273.306 35.46C272.25 34.836 271.542 34.02 271.182 33.012H271.614V39.564C271.614 40.62 271.326 41.424 270.75 41.976C270.198 42.528 269.406 42.804 268.374 42.804ZM274.854 31.68C275.502 31.68 276.066 31.524 276.546 31.212C277.05 30.876 277.446 30.384 277.734 29.736C278.022 29.064 278.166 28.2 278.166 27.144C278.166 25.536 277.854 24.384 277.23 23.688C276.606 22.968 275.814 22.608 274.854 22.608C274.206 22.608 273.63 22.764 273.126 23.076C272.622 23.388 272.226 23.88 271.938 24.552C271.65 25.2 271.506 26.064 271.506 27.144C271.506 28.728 271.818 29.88 272.442 30.6C273.066 31.32 273.87 31.68 274.854 31.68Z" fill="#3B82F6"/>
<g clip-path="url(#clip1_23_5)">
<mask id="mask0_23_5" style="mask-type:luminance" maskUnits="userSpaceOnUse" x="0" y="0" width="49" height="48">
<path d="M48.1684 0H0V48H48.1684V0Z" fill="white"/>
</mask>
<g mask="url(#mask0_23_5)">
<path d="M24.0842 48C37.3856 48 48.1684 37.2548 48.1684 24C48.1684 10.7452 37.3856 0 24.0842 0C10.7829 0 0 10.7452 0 24C0 37.2548 10.7829 48 24.0842 48Z" fill="#3B82F6"/>
<path d="M39.1353 30.9493C37.9138 33.6211 35.9922 35.7586 33.3706 37.3618C30.7788 38.9649 27.9038 39.7665 24.7459 39.7665C20.2772 39.7665 16.4936 38.2672 13.3953 35.2688C10.3267 32.2407 8.79248 28.5298 8.79248 24.136C8.79248 19.7422 10.3416 16.0165 13.44 12.9586C16.5681 9.87117 20.3367 8.32739 24.7459 8.32739C27.8144 8.32739 30.6596 9.1438 33.2813 10.7766C35.9029 12.3797 37.8394 14.5024 39.0906 17.1446C39.2694 17.5305 39.2842 17.8571 39.1353 18.1243C39.0161 18.3617 38.748 18.4805 38.3309 18.4805H33.5047C33.1472 18.4805 32.8641 18.436 32.6556 18.3469C32.4471 18.2281 32.2236 18.0204 31.9853 17.7235C31.0916 16.5954 30.0191 15.7196 28.7678 15.0961C27.5166 14.443 26.1759 14.1165 24.7459 14.1165C22.1541 14.1165 19.9494 15.0813 18.1322 17.011C16.3447 18.9406 15.4509 21.286 15.4509 24.0469C15.4509 26.8079 16.3447 29.1532 18.1322 31.0829C19.9494 33.0125 22.1541 33.9774 24.7459 33.9774C26.1461 33.9774 27.4867 33.6509 28.7678 32.9977C30.0786 32.3149 31.1958 31.3946 32.1194 30.2368C32.3577 29.9696 32.5811 29.7915 32.7897 29.7024C33.028 29.5836 33.3259 29.5243 33.6834 29.5243H38.4203C38.8374 29.5243 39.1055 29.6579 39.2247 29.925C39.3736 30.1922 39.3438 30.5337 39.1353 30.9493Z" fill="white"/>
</g>
</g>
</g>
<defs>
<clipPath id="clip0_23_5">
<rect width="286" height="48" fill="white"/>
</clipPath>
<clipPath id="clip1_23_5">
<rect width="48.1684" height="48" fill="white"/>
</clipPath>
</defs>
</svg>
